<svg width="37" height="37" viewBox="0 0 37 37" fill="none" xmlns="http://www.w3.org/2000/svg">
<g clip-path="url(#clip0_10488_119441)">
<path d="M18.5 37C28.7173 37 37 28.7173 37 18.5C37 8.28273 28.7173 0 18.5 0C8.28273 0 0 8.28273 0 18.5C0 28.7173 8.28273 37 18.5 37Z" fill="url(#paint0_linear_10488_119441)"/>
<path d="M23.7994 30.0625H13.2006C9.74719 30.0625 6.9375 27.2531 6.9375 23.7994V13.2006C6.9375 9.7469 9.74719 6.9375 13.2006 6.9375H23.7994C27.2531 6.9375 30.0625 9.7469 30.0625 13.2006V23.7997C30.0625 27.2531 27.2531 30.0625 23.7994 30.0625ZM13.2006 8.86468C10.8098 8.86468 8.86468 10.8098 8.86468 13.2006V23.7997C8.86468 26.1905 10.8098 28.1356 13.2006 28.1356H23.7994C26.1902 28.1356 28.1353 26.1905 28.1353 23.7997V13.2006C28.1353 10.8098 26.1902 8.86468 23.7994 8.86468H13.2006Z" fill="white"/>
<path d="M18.5 24.2812C15.3122 24.2812 12.7188 21.6875 12.7188 18.5C12.7188 15.3119 15.3122 12.7188 18.5 12.7188C21.6878 12.7188 24.2812 15.3119 24.2812 18.5C24.2812 21.6875 21.6878 24.2812 18.5 24.2812ZM18.5 14.6459C16.3748 14.6459 14.6459 16.3748 14.6459 18.5C14.6459 20.6255 16.3748 22.3541 18.5 22.3541C20.6252 22.3541 22.3541 20.6255 22.3541 18.5C22.3541 16.3748 20.6255 14.6459 18.5 14.6459Z" fill="white"/>
<path d="M24.6412 13.6818C25.3728 13.6818 25.966 13.0887 25.966 12.357C25.966 11.6253 25.3728 11.0322 24.6412 11.0322C23.9095 11.0322 23.3164 11.6253 23.3164 12.357C23.3164 13.0887 23.9095 13.6818 24.6412 13.6818Z" fill="white"/>
</g>
<defs>
<linearGradient id="paint0_linear_10488_119441" x1="7.88811" y1="33.6558" x2="29.1122" y2="3.34457" gradientUnits="userSpaceOnUse">
<stop stop-color="#FFB900"/>
<stop offset="1" stop-color="#9100EB"/>
</linearGradient>
<clipPath id="clip0_10488_119441">
<rect width="37" height="37" fill="white"/>
</clipPath>
</defs>
</svg>
