<svg width="44" height="44" viewBox="0 0 44 44" fill="none" xmlns="http://www.w3.org/2000/svg">
<rect width="44" height="44" rx="22" fill="#FFFC00"/>
<path d="M33.4734 29.0281C29.1775 26.9486 28.4928 23.7377 28.4623 23.4996C28.4254 23.2111 28.3836 22.9843 28.7019 22.6909C29.0088 22.4073 30.3703 21.5646 30.7481 21.3009C31.3726 20.8643 31.6476 20.4284 31.4449 19.8926C31.3031 19.5219 30.9579 19.3822 30.5943 19.3822C30.4796 19.3826 30.3653 19.3954 30.2534 19.4205C29.5673 19.5694 28.901 19.9131 28.5154 20.006C28.4691 20.0179 28.4215 20.0243 28.3737 20.0251C28.1681 20.0251 28.0902 19.9337 28.11 19.6863C28.1582 18.9364 28.2603 17.4727 28.1419 16.1055C27.9796 14.2244 27.3729 13.2923 26.6535 12.468C26.3054 12.0682 24.6894 10.3508 21.5707 10.3508C18.452 10.3508 16.8381 12.0682 16.4922 12.463C15.7707 13.2873 15.1647 14.2194 15.0038 16.1005C14.8854 17.4678 14.9917 18.9307 15.0357 19.6813C15.0499 19.9167 14.9776 20.0201 14.772 20.0201C14.7242 20.0193 14.6766 20.0129 14.6303 20.001C14.2454 19.9082 13.5791 19.5644 12.893 19.4155C12.7811 19.3905 12.6668 19.3776 12.5521 19.3773C12.1871 19.3773 11.8433 19.519 11.7015 19.8876C11.4988 20.4234 11.7724 20.8593 12.399 21.296C12.7768 21.5596 14.1384 22.4017 14.4453 22.6859C14.7628 22.9793 14.7217 23.2062 14.6848 23.4946C14.6544 23.7363 13.969 26.9471 9.67368 29.0232C9.42206 29.1451 8.99395 29.4031 9.74882 29.8199C10.9339 30.4748 11.7228 30.4046 12.3359 30.7994C12.8562 31.1347 12.5485 31.8576 12.927 32.1185C13.392 32.4396 14.7663 32.0958 16.5419 32.682C18.0303 33.1724 18.9347 34.5581 21.5743 34.5581C24.2138 34.5581 25.1444 33.1661 26.6067 32.682C28.3786 32.0958 29.7558 32.4396 30.2215 32.1185C30.5993 31.8576 30.2924 31.1347 30.8126 30.7994C31.4257 30.4046 32.2139 30.4748 33.3997 29.8199C34.1532 29.4081 33.725 29.1501 33.4734 29.0281Z" fill="white"/>
<path d="M35.3424 28.7836C35.1497 28.2591 34.7825 27.9784 34.3643 27.7459C34.2856 27.6998 34.2133 27.663 34.1517 27.6346C34.0269 27.5701 33.8994 27.5078 33.7725 27.4418C32.469 26.7508 31.4512 25.879 30.7452 24.8456C30.5448 24.5546 30.3709 24.2462 30.2257 23.9241C30.1655 23.7519 30.1683 23.6541 30.2115 23.5648C30.2544 23.496 30.3111 23.4368 30.3781 23.3911C30.6021 23.243 30.8331 23.0927 30.9898 22.9914C31.269 22.8106 31.4902 22.6674 31.6326 22.5661C32.1678 22.1919 32.542 21.7942 32.7759 21.3498C32.9391 21.0428 33.0343 20.7042 33.055 20.3571C33.0756 20.01 33.0213 19.6625 32.8957 19.3383C32.5413 18.4055 31.6603 17.8264 30.5929 17.8264C30.3677 17.8262 30.1432 17.85 29.923 17.8973C29.8642 17.9101 29.8054 17.9235 29.748 17.9384C29.7579 17.3005 29.7437 16.6271 29.687 15.9644C29.4857 13.6346 28.6699 12.4134 27.8194 11.4395C27.2747 10.8292 26.6331 10.3129 25.9205 9.91137C24.6298 9.17423 23.1662 8.79999 21.5707 8.79999C19.9752 8.79999 18.5186 9.17423 17.2265 9.91137C16.5121 10.3131 15.8693 10.8304 15.3241 11.4424C14.4736 12.4162 13.6578 13.6396 13.4565 15.9673C13.3998 16.63 13.3856 17.3069 13.3948 17.9412C13.3374 17.9264 13.2793 17.9129 13.2204 17.9001C13.0003 17.8528 12.7758 17.829 12.5506 17.8293C11.4825 17.8293 10.6 18.4083 10.2471 19.3411C10.1209 19.6655 10.066 20.0132 10.0862 20.3607C10.1064 20.7081 10.2011 21.0472 10.364 21.3548C10.5986 21.7992 10.9729 22.1968 11.508 22.5711C11.6498 22.6703 11.8716 22.8135 12.1509 22.9963C12.3018 23.0941 12.5223 23.2373 12.7385 23.3805C12.8141 23.4294 12.8784 23.4939 12.927 23.5697C12.9724 23.6626 12.9738 23.7625 12.9064 23.9468C12.7632 24.2621 12.5922 24.5641 12.3954 24.8491C11.705 25.8591 10.717 26.7153 9.45535 27.4007C8.78696 27.7551 8.09235 27.9919 7.79891 28.7893C7.57777 29.391 7.72236 30.0757 8.28443 30.6527C8.49072 30.868 8.72998 31.0491 8.99322 31.1892C9.54097 31.4902 10.1234 31.7233 10.7276 31.8831C10.8523 31.9153 10.9707 31.9682 11.0778 32.0398C11.2826 32.2191 11.2535 32.4891 11.5264 32.8846C11.6634 33.089 11.8375 33.266 12.0396 33.4063C12.6123 33.8018 13.2559 33.8266 13.9377 33.8528C14.5537 33.8762 15.2518 33.9032 16.0492 34.1661C16.3795 34.2753 16.7226 34.4865 17.1202 34.7332C18.0749 35.32 19.3819 36.1231 21.5693 36.1231C23.7566 36.1231 25.0728 35.3158 26.0346 34.7268C26.4294 34.4844 26.7704 34.2753 27.0914 34.169C27.8888 33.9053 28.587 33.8791 29.2029 33.8557C29.8848 33.8295 30.5284 33.8047 31.1011 33.4091C31.3404 33.2422 31.5399 33.0244 31.6851 32.7712C31.8814 32.4374 31.8765 32.2042 32.0608 32.0412C32.1612 31.9731 32.2724 31.9223 32.3896 31.8909C33.0021 31.7306 33.5925 31.4954 34.1474 31.1906C34.4271 31.0406 34.6789 30.8435 34.8917 30.608L34.8987 30.5995C35.4261 30.0353 35.5586 29.3705 35.3424 28.7836ZM33.3982 29.8283C32.2124 30.4833 31.4243 30.4131 30.8112 30.8079C30.2902 31.1431 30.5985 31.8661 30.22 32.1269C29.7551 32.448 28.3807 32.1043 26.6052 32.6904C25.1408 33.1745 24.2067 34.5666 21.5728 34.5666C18.9389 34.5666 18.0267 33.1774 16.5383 32.6869C14.7663 32.1007 13.3891 32.4445 12.9235 32.1234C12.5457 31.8626 12.8526 31.1396 12.3323 30.8043C11.7185 30.4096 10.9303 30.4797 9.74525 29.8283C8.99039 29.4116 9.41849 29.1536 9.67011 29.0317C13.9654 26.9521 14.6508 23.7413 14.6813 23.5031C14.7181 23.2146 14.7592 22.9878 14.4417 22.6944C14.1348 22.4109 12.7732 21.5681 12.3954 21.3044C11.7703 20.8678 11.4952 20.4319 11.698 19.8961C11.8397 19.5254 12.1856 19.3858 12.5485 19.3858C12.6632 19.3861 12.7775 19.3989 12.8894 19.424C13.5755 19.5729 14.2418 19.9166 14.6267 20.0095C14.673 20.0214 14.7206 20.0278 14.7684 20.0286C14.974 20.0286 15.0463 19.9251 15.0321 19.6898C14.9882 18.9392 14.8818 17.4763 15.0002 16.109C15.1625 14.2279 15.7685 13.2958 16.4887 12.4715C16.8346 12.0753 18.4598 10.3579 21.5678 10.3579C24.6759 10.3579 26.3054 12.0682 26.6513 12.463C27.3721 13.2873 27.9788 14.2194 28.1397 16.1005C28.2581 17.4678 28.156 18.9314 28.1078 19.6813C28.0915 19.9287 28.166 20.0201 28.3715 20.0201C28.4194 20.0194 28.4669 20.0129 28.5133 20.001C28.8988 19.9081 29.5651 19.5644 30.2512 19.4155C30.3631 19.3904 30.4774 19.3776 30.5921 19.3772C30.9572 19.3772 31.3009 19.519 31.4427 19.8876C31.6454 20.4234 31.3718 20.8593 30.746 21.2959C30.3682 21.5596 29.0066 22.4017 28.6997 22.6859C28.3814 22.9793 28.4233 23.2061 28.4601 23.4946C28.4906 23.7363 29.1753 26.9471 33.4712 29.0232C33.725 29.15 34.1531 29.408 33.3982 29.8283Z" fill="black"/>
</svg>
