<svg width="44" height="44" viewBox="0 0 44 44" fill="none" xmlns="http://www.w3.org/2000/svg">
<rect width="44" height="44" rx="22" fill="black"/>
<path d="M26.8899 18.9612C28.6347 20.2129 30.7723 20.9494 33.0809 20.9494V16.4911C32.644 16.4912 32.2082 16.4455 31.7807 16.3546V19.8639C29.4723 19.8639 27.3351 19.1274 25.5897 17.8758V26.9739C25.5897 31.5253 21.9133 35.2146 17.3784 35.2146C15.6863 35.2146 14.1136 34.7012 12.8071 33.8208C14.2982 35.3508 16.3777 36.3 18.6782 36.3C23.2134 36.3 26.8901 32.6107 26.8901 28.0591V18.9612H26.8899V18.9612ZM28.4938 14.4633C27.6021 13.4856 27.0166 12.2222 26.8899 10.8254V10.252H25.6578C25.9679 12.0273 27.0258 13.544 28.4938 14.4633ZM15.6755 30.3282C15.1772 29.6726 14.908 28.8707 14.9092 28.0461C14.9092 25.9645 16.5908 24.2767 18.6654 24.2767C19.0521 24.2766 19.4364 24.336 19.8049 24.4533V19.8954C19.3743 19.8362 18.9397 19.811 18.5053 19.8202V23.3679C18.1365 23.2506 17.752 23.191 17.3653 23.1914C15.2907 23.1914 13.6092 24.879 13.6092 26.9609C13.6092 28.4329 14.4497 29.7074 15.6755 30.3282Z" fill="#FF004F"/>
<path d="M25.5898 17.8757C27.3351 19.1273 29.4723 19.8638 31.7807 19.8638V16.3545C30.4922 16.079 29.3515 15.4033 28.4938 14.4633C27.0257 13.5439 25.968 12.0272 25.6578 10.252H22.4215V28.0589C22.4142 30.1349 20.7355 31.8158 18.6653 31.8158C17.4453 31.8158 16.3616 31.2322 15.6752 30.3282C14.4495 29.7074 13.609 28.4328 13.609 26.961C13.609 24.8793 15.2905 23.1915 17.3651 23.1915C17.7626 23.1915 18.1457 23.2536 18.5051 23.368V19.8203C14.0499 19.9127 10.4668 23.566 10.4668 28.059C10.4668 30.3019 11.3591 32.3352 12.8072 33.8209C14.1137 34.7012 15.6864 35.2147 17.3785 35.2147C21.9135 35.2147 25.5898 31.5252 25.5898 26.9739V17.8757H25.5898Z" fill="white"/>
<path d="M31.7807 16.3545V15.4056C30.6187 15.4074 29.4796 15.0808 28.4937 14.4633C29.3664 15.4221 30.5156 16.0833 31.7807 16.3545ZM25.6578 10.252C25.6282 10.0823 25.6055 9.91156 25.5897 9.74012V9.16669H21.1212V26.9739C21.1141 29.0495 19.4354 30.7304 17.3651 30.7304C16.7572 30.7304 16.1834 30.5856 15.6751 30.3283C16.3615 31.2323 17.4453 31.8157 18.6652 31.8157C20.7352 31.8157 22.4142 30.135 22.4215 28.0591V10.252H25.6578ZM18.5052 19.8204V18.8102C18.1319 18.759 17.7554 18.7333 17.3785 18.7335C12.8432 18.7334 9.16669 22.4229 9.16669 26.9739C9.16669 29.8271 10.6116 32.3416 12.8073 33.8207C11.3591 32.3352 10.4668 30.3018 10.4668 28.059C10.4668 23.566 14.0498 19.9128 18.5052 19.8204Z" fill="#00F2EA"/>
</svg>
