<?xml version="1.0" standalone="no"?>
<!DOCTYPE svg PUBLIC "-//W3C//DTD SVG 20010904//EN"
 "http://www.w3.org/TR/2001/REC-SVG-20010904/DTD/svg10.dtd">
<svg version="1.0" xmlns="http://www.w3.org/2000/svg"
 width="225.000000pt" height="225.000000pt" viewBox="0 0 225.000000 225.000000"
 preserveAspectRatio="xMidYMid meet">

<g transform="translate(0.000000,225.000000) scale(0.100000,-0.100000)"
fill="#000000" stroke="none">
<path d="M958 2239 c-429 -63 -790 -380 -912 -802 -116 -399 -6 -823 288
-1110 88 -86 247 -193 350 -236 154 -64 251 -82 442 -82 139 -1 187 3 259 21
391 92 706 394 819 783 136 470 -46 974 -449 1242 -235 157 -526 224 -797 184z
m56 -695 c104 -151 192 -272 196 -267 4 4 94 109 200 233 302 352 258 311 330
308 l62 -3 -271 -314 c-148 -173 -267 -320 -263 -325 7 -13 441 -646 519 -758
29 -43 56 -84 59 -93 5 -13 -21 -15 -209 -15 l-216 0 -202 295 c-158 230 -206
292 -215 283 -6 -7 -120 -140 -253 -296 l-242 -282 -60 0 c-32 0 -59 3 -59 8
0 4 128 155 284 337 l284 329 -17 26 c-64 92 -521 760 -536 783 l-17 27 218 0
219 0 189 -276z"/>
<path d="M572 1716 c2 -7 206 -303 453 -659 l450 -646 98 0 c53 -1 97 2 97 5
0 3 -172 252 -381 552 -210 301 -416 596 -457 655 l-75 108 -94 -2 c-67 -1
-93 -5 -91 -13z"/>
</g>
</svg>
